<svg width="173" height="51" viewBox="0 0 173 51" fill="none" xmlns="http://www.w3.org/2000/svg">
<path d="M24.5 11.35C24.5 11.8167 23.9334 12.4167 22.8 13.15C21.7 13.85 20.2333 14.65 18.4 15.55C16.6 16.45 14.6333 17.4167 12.5 18.45C10.3667 19.45 8.28335 20.4833 6.25002 21.55C7.95002 22.8167 9.70002 24 11.5 25.1C13.3333 26.1667 15.0167 27.1667 16.55 28.1C18.0833 29 19.3167 29.8 20.25 30.5C21.2167 31.1667 21.7 31.7167 21.7 32.15C21.7 32.5833 21.5333 32.9833 21.2 33.35C20.9 33.6833 20.4167 33.85 19.75 33.85C19.4833 33.85 18.9 33.65 18 33.25C17.1 32.85 16 32.3 14.7 31.6C13.4 30.8667 11.9833 30.05 10.45 29.15C8.95002 28.25 7.45002 27.3167 5.95002 26.35C4.45002 25.35 3.06668 24.3667 1.80002 23.4C1.36668 23.1 1.06668 22.8 0.900016 22.5C0.733349 22.1667 0.650015 21.8667 0.650015 21.6C0.650015 20.7667 1.18335 20.0333 2.25002 19.4C3.75002 18.5 5.35002 17.6 7.05002 16.7C8.78335 15.8 10.5 14.95 12.2 14.15C13.9 13.35 15.5 12.6333 17 12C18.5 11.3667 19.7667 10.8833 20.8 10.55C21.8667 10.1833 22.6 10 23 10C24 10 24.5 10.45 24.5 11.35ZM119.905 50.3C119.372 50.3 118.955 50.0833 118.655 49.65C118.355 49.2167 118.205 48.5 118.205 47.5C118.205 47.1667 118.472 46.35 119.005 45.05C119.538 43.75 120.272 42.1 121.205 40.1C122.172 38.0667 123.255 35.8 124.455 33.3C125.688 30.8 126.988 28.2167 128.355 25.55C129.722 22.85 131.105 20.1667 132.505 17.5C133.905 14.8333 135.255 12.3167 136.555 9.95C137.855 7.55 139.038 5.45 140.105 3.65C140.572 2.95 140.972 2.51666 141.305 2.35C141.672 2.15 142.105 2.05 142.605 2.05C143.105 2.05 143.488 2.26667 143.755 2.7C144.055 3.1 144.205 3.58333 144.205 4.15C144.205 4.45 143.888 5.3 143.255 6.7C142.622 8.06667 141.755 9.86667 140.655 12.1C139.555 14.3 138.272 16.8167 136.805 19.65C135.372 22.45 133.822 25.45 132.155 28.65C130.522 31.8167 128.855 35.0667 127.155 38.4C125.455 41.7 123.805 44.9667 122.205 48.2C121.838 48.9667 121.488 49.5 121.155 49.8C120.822 50.1333 120.405 50.3 119.905 50.3ZM171.107 23.35C169.574 24.35 167.924 25.35 166.157 26.35C164.391 27.35 162.607 28.3 160.807 29.2C159.041 30.1 157.391 30.9 155.857 31.6C154.324 32.3 153.024 32.85 151.957 33.25C150.891 33.65 150.191 33.85 149.857 33.85C149.224 33.85 148.791 33.75 148.557 33.55C148.324 33.35 148.207 33.0333 148.207 32.6C148.207 32.0667 148.774 31.4 149.907 30.6C151.074 29.7667 152.574 28.85 154.407 27.85C156.274 26.85 158.291 25.8 160.457 24.7C162.624 23.5667 164.741 22.4167 166.807 21.25C165.107 20.1167 163.374 19.05 161.607 18.05C159.874 17.05 158.257 16.15 156.757 15.35C155.291 14.5167 154.107 13.8 153.207 13.2C152.307 12.5667 151.857 12.05 151.857 11.65C151.857 10.55 152.474 10 153.707 10C154.007 10 154.774 10.2833 156.007 10.85C157.274 11.3833 158.791 12.1167 160.557 13.05C162.324 13.95 164.141 14.95 166.007 16.05C167.907 17.15 169.641 18.25 171.207 19.35C171.674 19.6833 172.007 20.0167 172.207 20.35C172.407 20.6833 172.507 21 172.507 21.3C172.507 22.0333 172.041 22.7167 171.107 23.35Z" fill="#B496E0"/>
<path d="M42.4012 44.4C41.3345 44.4 40.2179 44.1333 39.0512 43.6C37.9179 43.1 36.9512 42.2667 36.1512 41.1C35.3845 39.9 35.0012 38.3167 35.0012 36.35C35.0012 34.05 35.2012 31.6167 35.6012 29.05C36.0012 26.4833 36.5179 23.9167 37.1512 21.35C37.8179 18.75 38.5512 16.2833 39.3512 13.95C40.1512 11.6167 40.9512 9.53333 41.7512 7.7C42.5845 5.86666 43.3512 4.43333 44.0512 3.4C44.7512 2.33333 45.3345 1.8 45.8012 1.8C46.4345 1.8 46.9679 2.05 47.4012 2.55C47.8679 3.05 48.1012 3.75 48.1012 4.65C48.1012 5.01666 47.8845 5.88333 47.4512 7.25C47.0179 8.58333 46.4679 10.2667 45.8012 12.3C45.1345 14.3333 44.4179 16.5333 43.6512 18.9C42.9179 21.2667 42.2179 23.65 41.5512 26.05C40.8845 28.45 40.3345 30.7167 39.9012 32.85C39.4679 34.9833 39.2512 36.8 39.2512 38.3C39.2512 38.7333 39.3679 39.15 39.6012 39.55C39.8345 39.9167 40.2179 40.1 40.7512 40.1C41.4845 40.1 42.5345 39.9333 43.9012 39.6C45.3012 39.2667 46.8179 38.8667 48.4512 38.4C50.0845 37.9 51.6512 37.4167 53.1512 36.95C54.6512 36.4833 55.9179 36.0833 56.9512 35.75C57.9845 35.4167 58.5679 35.25 58.7012 35.25C59.1012 35.25 59.4345 35.3667 59.7012 35.6C59.9679 35.8 60.1012 36.1167 60.1012 36.55C60.1012 37.0833 59.7012 37.7 58.9012 38.4C58.1345 39.1 57.1012 39.8 55.8012 40.5C54.5345 41.2 53.1179 41.8333 51.5512 42.4C49.9845 43 48.4012 43.4833 46.8012 43.85C45.2345 44.2167 43.7679 44.4 42.4012 44.4ZM96.1781 43.5C95.3448 43.5 94.5781 43.2833 93.8781 42.85C93.1781 42.45 92.5615 41.7 92.0281 40.6C91.4948 39.4667 91.0781 37.8833 90.7781 35.85C90.5115 33.7833 90.3781 31.1 90.3781 27.8C90.3781 27.3 90.3781 26.8 90.3781 26.3C90.3781 25.7667 90.3948 25.2333 90.4281 24.7C89.5281 26.7333 88.5115 28.6833 87.3781 30.55C86.2781 32.4167 85.1115 34.0667 83.8781 35.5C82.6781 36.9333 81.4615 38.0667 80.2281 38.9C79.0281 39.7333 77.8781 40.15 76.7781 40.15C74.8115 40.15 73.2115 39.4 71.9781 37.9C70.7781 36.4 70.1781 33.9333 70.1781 30.5C70.1781 28.4667 70.3281 26.3 70.6281 24C70.9615 21.7 71.3948 19.45 71.9281 17.25C72.4615 15.05 73.0281 13.05 73.6281 11.25C74.2615 9.45 74.8948 8.01667 75.5281 6.95C76.1615 5.88333 76.7281 5.35 77.2281 5.35C78.0615 5.35 78.6781 5.56666 79.0781 6C79.5115 6.4 79.7281 6.93333 79.7281 7.6C79.7281 8.06667 79.5448 8.95 79.1781 10.25C78.8115 11.55 78.3615 13.1167 77.8281 14.95C77.2948 16.75 76.7448 18.6833 76.1781 20.75C75.6448 22.8167 75.1948 24.8667 74.8281 26.9C74.4615 28.9 74.2781 30.7333 74.2781 32.4C74.2781 34.1 74.9615 34.95 76.3281 34.95C77.9281 34.95 79.4281 34.2667 80.8281 32.9C82.2281 31.5 83.5281 29.65 84.7281 27.35C85.9281 25.05 87.0281 22.4833 88.0281 19.65C89.0615 16.7833 89.9948 13.8667 90.8281 10.9C90.7948 10.6 90.7781 10.2667 90.7781 9.9C90.7781 9.53333 90.7781 9.06666 90.7781 8.5C90.7781 7.76667 90.9781 6.98333 91.3781 6.15C91.8115 5.28333 92.3281 4.53333 92.9281 3.9C93.5281 3.26667 94.1281 2.95 94.7281 2.95C95.8615 2.95 96.4281 3.75 96.4281 5.35C96.4281 5.75 96.3281 6.4 96.1281 7.3C95.9615 8.2 95.7448 9.5 95.4781 11.2C95.2448 12.9 95.0281 15.1333 94.8281 17.9C94.6615 20.6667 94.5781 24.1333 94.5781 28.3C94.5781 31.8333 94.7615 34.3167 95.1281 35.75C95.5281 37.15 96.1115 37.85 96.8781 37.85C97.8781 37.85 98.8448 37.2667 99.7781 36.1C100.745 34.9333 101.645 33.3 102.478 31.2C103.345 29.1 104.111 26.65 104.778 23.85C105.478 21.0167 106.078 17.95 106.578 14.65C107.111 11.3167 107.528 7.86667 107.828 4.3C107.995 2.83333 108.311 1.78333 108.778 1.15C109.245 0.516665 109.728 0.199999 110.228 0.199999C110.528 0.199999 110.861 0.283332 111.228 0.449998C111.628 0.583332 111.961 0.883332 112.228 1.35C112.495 1.81667 112.628 2.55 112.628 3.55C112.628 8.71667 112.245 13.4167 111.478 17.65C110.745 21.85 109.761 25.5667 108.528 28.8C107.295 32 105.945 34.7 104.478 36.9C103.011 39.0667 101.545 40.7167 100.078 41.85C98.6448 42.95 97.3448 43.5 96.1781 43.5Z" fill="white"/>
</svg>
