<svg width="79" height="45" viewBox="0 0 79 45" fill="none" xmlns="http://www.w3.org/2000/svg">
<path d="M8.2 44.4C7.13333 44.4 6.01667 44.1333 4.85 43.6C3.71667 43.1 2.75 42.2667 1.95 41.1C1.18333 39.9 0.8 38.3167 0.8 36.35C0.8 34.05 1 31.6167 1.4 29.05C1.8 26.4833 2.31667 23.9167 2.95 21.35C3.61667 18.75 4.35 16.2833 5.15 13.95C5.95 11.6167 6.75 9.53333 7.55 7.7C8.38333 5.86666 9.15 4.43333 9.85 3.4C10.55 2.33333 11.1333 1.8 11.6 1.8C12.2333 1.8 12.7667 2.05 13.2 2.55C13.6667 3.05 13.9 3.75 13.9 4.65C13.9 5.01666 13.6833 5.88333 13.25 7.25C12.8167 8.58333 12.2667 10.2667 11.6 12.3C10.9333 14.3333 10.2167 16.5333 9.45 18.9C8.71667 21.2667 8.01667 23.65 7.35 26.05C6.68333 28.45 6.13333 30.7167 5.7 32.85C5.26667 34.9833 5.05 36.8 5.05 38.3C5.05 38.7333 5.16667 39.15 5.4 39.55C5.63333 39.9167 6.01667 40.1 6.55 40.1C7.28333 40.1 8.33333 39.9333 9.7 39.6C11.1 39.2667 12.6167 38.8667 14.25 38.4C15.8833 37.9 17.45 37.4167 18.95 36.95C20.45 36.4833 21.7167 36.0833 22.75 35.75C23.7833 35.4167 24.3667 35.25 24.5 35.25C24.9 35.25 25.2333 35.3667 25.5 35.6C25.7667 35.8 25.9 36.1167 25.9 36.55C25.9 37.0833 25.5 37.7 24.7 38.4C23.9333 39.1 22.9 39.8 21.6 40.5C20.3333 41.2 18.9167 41.8333 17.35 42.4C15.7833 43 14.2 43.4833 12.6 43.85C11.0333 44.2167 9.56667 44.4 8.2 44.4ZM61.977 43.5C61.1436 43.5 60.377 43.2833 59.677 42.85C58.977 42.45 58.3603 41.7 57.827 40.6C57.2936 39.4667 56.877 37.8833 56.577 35.85C56.3103 33.7833 56.177 31.1 56.177 27.8C56.177 27.3 56.177 26.8 56.177 26.3C56.177 25.7667 56.1936 25.2333 56.227 24.7C55.327 26.7333 54.3103 28.6833 53.177 30.55C52.077 32.4167 50.9103 34.0667 49.677 35.5C48.477 36.9333 47.2603 38.0667 46.027 38.9C44.827 39.7333 43.677 40.15 42.577 40.15C40.6103 40.15 39.0103 39.4 37.777 37.9C36.577 36.4 35.977 33.9333 35.977 30.5C35.977 28.4667 36.127 26.3 36.427 24C36.7603 21.7 37.1936 19.45 37.727 17.25C38.2603 15.05 38.827 13.05 39.427 11.25C40.0603 9.45 40.6936 8.01667 41.327 6.95C41.9603 5.88333 42.527 5.35 43.027 5.35C43.8603 5.35 44.477 5.56666 44.877 6C45.3103 6.4 45.527 6.93333 45.527 7.6C45.527 8.06667 45.3436 8.95 44.977 10.25C44.6103 11.55 44.1603 13.1167 43.627 14.95C43.0936 16.75 42.5436 18.6833 41.977 20.75C41.4436 22.8167 40.9936 24.8667 40.627 26.9C40.2603 28.9 40.077 30.7333 40.077 32.4C40.077 34.1 40.7603 34.95 42.127 34.95C43.727 34.95 45.227 34.2667 46.627 32.9C48.027 31.5 49.327 29.65 50.527 27.35C51.727 25.05 52.827 22.4833 53.827 19.65C54.8603 16.7833 55.7936 13.8667 56.627 10.9C56.5936 10.6 56.577 10.2667 56.577 9.9C56.577 9.53333 56.577 9.06666 56.577 8.5C56.577 7.76667 56.777 6.98333 57.177 6.15C57.6103 5.28333 58.127 4.53333 58.727 3.9C59.327 3.26667 59.927 2.95 60.527 2.95C61.6603 2.95 62.227 3.75 62.227 5.35C62.227 5.75 62.127 6.4 61.927 7.3C61.7603 8.2 61.5436 9.5 61.277 11.2C61.0436 12.9 60.827 15.1333 60.627 17.9C60.4603 20.6667 60.377 24.1333 60.377 28.3C60.377 31.8333 60.5603 34.3167 60.927 35.75C61.327 37.15 61.9103 37.85 62.677 37.85C63.677 37.85 64.6436 37.2667 65.577 36.1C66.5436 34.9333 67.4436 33.3 68.277 31.2C69.1436 29.1 69.9103 26.65 70.577 23.85C71.277 21.0167 71.877 17.95 72.377 14.65C72.9103 11.3167 73.327 7.86667 73.627 4.3C73.7936 2.83333 74.1103 1.78333 74.577 1.15C75.0436 0.516665 75.527 0.199999 76.027 0.199999C76.327 0.199999 76.6603 0.283332 77.027 0.449998C77.427 0.583332 77.7603 0.883332 78.027 1.35C78.2936 1.81667 78.427 2.55 78.427 3.55C78.427 8.71667 78.0436 13.4167 77.277 17.65C76.5436 21.85 75.5603 25.5667 74.327 28.8C73.0936 32 71.7436 34.7 70.277 36.9C68.8103 39.0667 67.3436 40.7167 65.877 41.85C64.4436 42.95 63.1436 43.5 61.977 43.5Z" fill="white"/>
</svg>
